<mxfile host="app.diagrams.net" agent="Mozilla/5.0 (Windows NT 10.0; Win64; x64) AppleWebKit/537.36 (KHTML, like Gecko) Chrome/129.0.0.0 Safari/537.36" version="24.7.17">
  <diagram name="Seite-1" id="BrNIBYhbN4itYrwLvYf7">
    <mxGraphModel dx="1167" dy="580" grid="1" gridSize="10" guides="1" tooltips="1" connect="1" arrows="1" fold="1" page="1" pageScale="1" pageWidth="827" pageHeight="1169" math="0" shadow="0">
      <root>
        <mxCell id="0" />
        <mxCell id="1" parent="0" />
        <mxCell id="UMza2wxkL8k6mBdxEO3m-4" value="Meheatrack Application" style="rounded=0;whiteSpace=wrap;html=1;align=left;verticalAlign=top;" vertex="1" parent="1">
          <mxGeometry x="230" y="180" width="640" height="450" as="geometry" />
        </mxCell>
        <mxCell id="UMza2wxkL8k6mBdxEO3m-9" style="rounded=0;orthogonalLoop=1;jettySize=auto;html=1;" edge="1" parent="1" source="UMza2wxkL8k6mBdxEO3m-1" target="UMza2wxkL8k6mBdxEO3m-8">
          <mxGeometry relative="1" as="geometry" />
        </mxCell>
        <mxCell id="UMza2wxkL8k6mBdxEO3m-12" style="edgeStyle=none;rounded=0;orthogonalLoop=1;jettySize=auto;html=1;" edge="1" parent="1" source="UMza2wxkL8k6mBdxEO3m-1" target="UMza2wxkL8k6mBdxEO3m-10">
          <mxGeometry relative="1" as="geometry" />
        </mxCell>
        <mxCell id="UMza2wxkL8k6mBdxEO3m-22" style="edgeStyle=none;rounded=0;orthogonalLoop=1;jettySize=auto;html=1;" edge="1" parent="1" source="UMza2wxkL8k6mBdxEO3m-1" target="UMza2wxkL8k6mBdxEO3m-21">
          <mxGeometry relative="1" as="geometry" />
        </mxCell>
        <mxCell id="UMza2wxkL8k6mBdxEO3m-25" style="edgeStyle=none;rounded=0;orthogonalLoop=1;jettySize=auto;html=1;" edge="1" parent="1" source="UMza2wxkL8k6mBdxEO3m-1" target="UMza2wxkL8k6mBdxEO3m-23">
          <mxGeometry relative="1" as="geometry" />
        </mxCell>
        <mxCell id="UMza2wxkL8k6mBdxEO3m-37" style="edgeStyle=none;rounded=0;orthogonalLoop=1;jettySize=auto;html=1;" edge="1" parent="1" source="UMza2wxkL8k6mBdxEO3m-1" target="UMza2wxkL8k6mBdxEO3m-35">
          <mxGeometry relative="1" as="geometry" />
        </mxCell>
        <mxCell id="UMza2wxkL8k6mBdxEO3m-1" value="HR Manager" style="shape=umlActor;verticalLabelPosition=bottom;verticalAlign=top;html=1;outlineConnect=0;" vertex="1" parent="1">
          <mxGeometry x="120" y="350" width="30" height="60" as="geometry" />
        </mxCell>
        <mxCell id="UMza2wxkL8k6mBdxEO3m-14" style="edgeStyle=none;rounded=0;orthogonalLoop=1;jettySize=auto;html=1;" edge="1" parent="1" source="UMza2wxkL8k6mBdxEO3m-2" target="UMza2wxkL8k6mBdxEO3m-13">
          <mxGeometry relative="1" as="geometry" />
        </mxCell>
        <mxCell id="UMza2wxkL8k6mBdxEO3m-39" style="edgeStyle=none;rounded=0;orthogonalLoop=1;jettySize=auto;html=1;" edge="1" parent="1" source="UMza2wxkL8k6mBdxEO3m-2" target="UMza2wxkL8k6mBdxEO3m-26">
          <mxGeometry relative="1" as="geometry" />
        </mxCell>
        <mxCell id="UMza2wxkL8k6mBdxEO3m-2" value="Employee" style="shape=umlActor;verticalLabelPosition=bottom;verticalAlign=top;html=1;outlineConnect=0;" vertex="1" parent="1">
          <mxGeometry x="399" y="670" width="30" height="60" as="geometry" />
        </mxCell>
        <mxCell id="UMza2wxkL8k6mBdxEO3m-15" style="edgeStyle=none;rounded=0;orthogonalLoop=1;jettySize=auto;html=1;" edge="1" parent="1" source="UMza2wxkL8k6mBdxEO3m-3" target="UMza2wxkL8k6mBdxEO3m-13">
          <mxGeometry relative="1" as="geometry" />
        </mxCell>
        <mxCell id="UMza2wxkL8k6mBdxEO3m-27" style="edgeStyle=none;rounded=0;orthogonalLoop=1;jettySize=auto;html=1;" edge="1" parent="1" source="UMza2wxkL8k6mBdxEO3m-3" target="UMza2wxkL8k6mBdxEO3m-26">
          <mxGeometry relative="1" as="geometry" />
        </mxCell>
        <mxCell id="UMza2wxkL8k6mBdxEO3m-3" value="Employee-superior" style="shape=umlActor;verticalLabelPosition=bottom;verticalAlign=top;html=1;outlineConnect=0;" vertex="1" parent="1">
          <mxGeometry x="110" y="490" width="30" height="60" as="geometry" />
        </mxCell>
        <mxCell id="UMza2wxkL8k6mBdxEO3m-5" value="Fill out Survey" style="ellipse;whiteSpace=wrap;html=1;" vertex="1" parent="1">
          <mxGeometry x="495" y="530" width="110" height="60" as="geometry" />
        </mxCell>
        <mxCell id="UMza2wxkL8k6mBdxEO3m-7" style="rounded=0;orthogonalLoop=1;jettySize=auto;html=1;endArrow=classic;endFill=1;" edge="1" parent="1" source="UMza2wxkL8k6mBdxEO3m-2" target="UMza2wxkL8k6mBdxEO3m-5">
          <mxGeometry relative="1" as="geometry" />
        </mxCell>
        <mxCell id="UMza2wxkL8k6mBdxEO3m-8" value="Schedule Survey" style="ellipse;whiteSpace=wrap;html=1;" vertex="1" parent="1">
          <mxGeometry x="264" y="210" width="110" height="60" as="geometry" />
        </mxCell>
        <mxCell id="UMza2wxkL8k6mBdxEO3m-10" value="Send Survey completion reminder" style="ellipse;whiteSpace=wrap;html=1;" vertex="1" parent="1">
          <mxGeometry x="399" y="220" width="110" height="60" as="geometry" />
        </mxCell>
        <mxCell id="UMza2wxkL8k6mBdxEO3m-13" value="Create Incident / Issue" style="ellipse;whiteSpace=wrap;html=1;" vertex="1" parent="1">
          <mxGeometry x="330" y="540" width="110" height="60" as="geometry" />
        </mxCell>
        <mxCell id="UMza2wxkL8k6mBdxEO3m-20" style="edgeStyle=none;rounded=0;orthogonalLoop=1;jettySize=auto;html=1;" edge="1" parent="1" source="UMza2wxkL8k6mBdxEO3m-16" target="UMza2wxkL8k6mBdxEO3m-18">
          <mxGeometry relative="1" as="geometry" />
        </mxCell>
        <mxCell id="UMza2wxkL8k6mBdxEO3m-24" style="edgeStyle=none;rounded=0;orthogonalLoop=1;jettySize=auto;html=1;" edge="1" parent="1" source="UMza2wxkL8k6mBdxEO3m-16" target="UMza2wxkL8k6mBdxEO3m-26">
          <mxGeometry relative="1" as="geometry" />
        </mxCell>
        <mxCell id="UMza2wxkL8k6mBdxEO3m-16" value="Psychologist" style="shape=umlActor;verticalLabelPosition=bottom;verticalAlign=top;html=1;outlineConnect=0;" vertex="1" parent="1">
          <mxGeometry x="940" y="560" width="30" height="60" as="geometry" />
        </mxCell>
        <mxCell id="UMza2wxkL8k6mBdxEO3m-18" value="Schedule appointment" style="ellipse;whiteSpace=wrap;html=1;" vertex="1" parent="1">
          <mxGeometry x="720" y="440" width="110" height="60" as="geometry" />
        </mxCell>
        <mxCell id="UMza2wxkL8k6mBdxEO3m-21" value="Escalate to Psychologist" style="ellipse;whiteSpace=wrap;html=1;" vertex="1" parent="1">
          <mxGeometry x="300" y="400" width="110" height="60" as="geometry" />
        </mxCell>
        <mxCell id="UMza2wxkL8k6mBdxEO3m-23" value="Get complete Report" style="ellipse;whiteSpace=wrap;html=1;" vertex="1" parent="1">
          <mxGeometry x="500" y="330" width="110" height="60" as="geometry" />
        </mxCell>
        <mxCell id="UMza2wxkL8k6mBdxEO3m-28" style="edgeStyle=none;rounded=0;orthogonalLoop=1;jettySize=auto;html=1;dashed=1;dashPattern=8 8;" edge="1" parent="1" source="UMza2wxkL8k6mBdxEO3m-26" target="UMza2wxkL8k6mBdxEO3m-23">
          <mxGeometry relative="1" as="geometry" />
        </mxCell>
        <mxCell id="UMza2wxkL8k6mBdxEO3m-29" value="if request is granted &lt;br&gt;by HR Manager" style="edgeLabel;html=1;align=center;verticalAlign=middle;resizable=0;points=[];" vertex="1" connectable="0" parent="UMza2wxkL8k6mBdxEO3m-28">
          <mxGeometry x="-0.055" y="-2" relative="1" as="geometry">
            <mxPoint as="offset" />
          </mxGeometry>
        </mxCell>
        <mxCell id="UMza2wxkL8k6mBdxEO3m-26" value="Request Report" style="ellipse;whiteSpace=wrap;html=1;" vertex="1" parent="1">
          <mxGeometry x="420" y="450" width="110" height="60" as="geometry" />
        </mxCell>
        <mxCell id="UMza2wxkL8k6mBdxEO3m-30" value="Other work systems" style="rounded=0;whiteSpace=wrap;html=1;align=left;verticalAlign=top;" vertex="1" parent="1">
          <mxGeometry x="920" y="180" width="230" height="160" as="geometry" />
        </mxCell>
        <mxCell id="UMza2wxkL8k6mBdxEO3m-33" style="edgeStyle=none;rounded=0;orthogonalLoop=1;jettySize=auto;html=1;" edge="1" parent="1" source="UMza2wxkL8k6mBdxEO3m-31" target="UMza2wxkL8k6mBdxEO3m-30">
          <mxGeometry relative="1" as="geometry" />
        </mxCell>
        <mxCell id="UMza2wxkL8k6mBdxEO3m-31" value="import external data" style="ellipse;whiteSpace=wrap;html=1;" vertex="1" parent="1">
          <mxGeometry x="720" y="231" width="100" height="60" as="geometry" />
        </mxCell>
        <mxCell id="UMza2wxkL8k6mBdxEO3m-32" value="1x per day" style="html=1;verticalLabelPosition=bottom;align=center;labelBackgroundColor=#ffffff;verticalAlign=top;strokeWidth=2;strokeColor=#0080F0;shadow=0;dashed=0;shape=mxgraph.ios7.icons.reload;" vertex="1" parent="1">
          <mxGeometry x="787" y="264" width="24" height="27" as="geometry" />
        </mxCell>
        <mxCell id="UMza2wxkL8k6mBdxEO3m-34" value="Meheatrack AI Model" style="rounded=0;whiteSpace=wrap;html=1;align=left;verticalAlign=top;" vertex="1" parent="1">
          <mxGeometry x="512.5" y="40" width="195" height="120" as="geometry" />
        </mxCell>
        <mxCell id="UMza2wxkL8k6mBdxEO3m-38" style="edgeStyle=none;rounded=0;orthogonalLoop=1;jettySize=auto;html=1;" edge="1" parent="1" source="UMza2wxkL8k6mBdxEO3m-35" target="UMza2wxkL8k6mBdxEO3m-34">
          <mxGeometry relative="1" as="geometry" />
        </mxCell>
        <mxCell id="UMza2wxkL8k6mBdxEO3m-35" value="Evaluate mental health risk" style="ellipse;whiteSpace=wrap;html=1;" vertex="1" parent="1">
          <mxGeometry x="560" y="231" width="100" height="60" as="geometry" />
        </mxCell>
        <mxCell id="UMza2wxkL8k6mBdxEO3m-36" value="1x per week" style="html=1;verticalLabelPosition=bottom;align=center;labelBackgroundColor=#ffffff;verticalAlign=top;strokeWidth=2;strokeColor=#0080F0;shadow=0;dashed=0;shape=mxgraph.ios7.icons.reload;" vertex="1" parent="1">
          <mxGeometry x="636" y="270" width="24" height="27" as="geometry" />
        </mxCell>
      </root>
    </mxGraphModel>
  </diagram>
</mxfile>
